<?xml version="1.0" encoding="UTF-8" standalone="no"?>
<!-- Created with Inkscape (http://www.inkscape.org/) -->

<svg
   xmlns:dc="http://purl.org/dc/elements/1.1/"
   xmlns:cc="http://creativecommons.org/ns#"
   xmlns:rdf="http://www.w3.org/1999/02/22-rdf-syntax-ns#"
   xmlns:svg="http://www.w3.org/2000/svg"
   xmlns="http://www.w3.org/2000/svg"
   xmlns:sodipodi="http://sodipodi.sourceforge.net/DTD/sodipodi-0.dtd"
   xmlns:inkscape="http://www.inkscape.org/namespaces/inkscape"
   width="32"
   height="32"
   id="svg2"
   version="1.1"
   inkscape:version="0.48.2 r9819"
   sodipodi:docname="ic_speech_on_highlight.svg">
  <defs
     id="defs4">
    <filter
       inkscape:collect="always"
       id="filter4050"
       x="-0.31125"
       width="1.6225"
       y="-0.16977273"
       height="1.3395455">
      <feGaussianBlur
         inkscape:collect="always"
         stdDeviation="0.5"
         id="feGaussianBlur4052" />
    </filter>
    <filter
       inkscape:collect="always"
       id="filter4054"
       x="-0.66033149"
       width="2.320663"
       y="-0.2311806"
       height="1.4623612">
      <feGaussianBlur
         inkscape:collect="always"
         stdDeviation="0.5"
         id="feGaussianBlur4056" />
    </filter>
  </defs>
  <sodipodi:namedview
     id="base"
     pagecolor="#ffffff"
     bordercolor="#666666"
     borderopacity="1.0"
     inkscape:pageopacity="0"
     inkscape:pageshadow="2"
     inkscape:zoom="16"
     inkscape:cx="9.60797"
     inkscape:cy="13.646554"
     inkscape:document-units="px"
     inkscape:current-layer="layer1"
     showgrid="false"
     showguides="true"
     inkscape:guide-bbox="true"
     inkscape:window-width="1237"
     inkscape:window-height="797"
     inkscape:window-x="198"
     inkscape:window-y="27"
     inkscape:window-maximized="0"
     inkscape:snap-page="true"
     inkscape:snap-object-midpoints="true"
     inkscape:snap-center="true"
     inkscape:object-nodes="true"
     inkscape:snap-midpoints="true"
     inkscape:snap-smooth-nodes="true"
     inkscape:snap-bbox="true"
     inkscape:snap-bbox-midpoints="true"
     inkscape:bbox-paths="true"
     inkscape:bbox-nodes="true"
     inkscape:snap-bbox-edge-midpoints="true"
     inkscape:object-paths="true"
     inkscape:snap-intersection-paths="true"
     inkscape:snap-global="true">
    <sodipodi:guide
       orientation="1,0"
       position="4,4"
       id="guide3761" />
    <sodipodi:guide
       orientation="0,1"
       position="4,4"
       id="guide3763" />
    <sodipodi:guide
       orientation="1,0"
       position="28,28"
       id="guide3765" />
    <sodipodi:guide
       orientation="0,1"
       position="28,28"
       id="guide3767" />
    <inkscape:grid
       type="xygrid"
       id="grid4141"
       empspacing="5"
       visible="true"
       enabled="true"
       snapvisiblegridlinesonly="true" />
  </sodipodi:namedview>
  <metadata
     id="metadata7">
    <rdf:RDF>
      <cc:Work
         rdf:about="">
        <dc:format>image/svg+xml</dc:format>
        <dc:type
           rdf:resource="http://purl.org/dc/dcmitype/StillImage" />
        <dc:title />
      </cc:Work>
    </rdf:RDF>
  </metadata>
  <g
     inkscape:label="Layer 1"
     inkscape:groupmode="layer"
     id="layer1"
     transform="translate(0,-1020.3622)">
    <path
       style="fill:#ffffff;fill-opacity:1;stroke:none;filter:url(#filter4054)"
       d="m 25.75,1028.5185 -1.25,0.7812 c 1.262328,2.0539 2,4.4749 2,7.0625 0,2.7713 -0.84902,5.3566 -2.28125,7.5 l 1.25,0.8125 C 27.062163,1042.2922 28,1039.4436 28,1036.3622 c 0,-2.8836 -0.839673,-5.5573 -2.25,-7.8437 z m -1.875,2.8125 -1.34375,0.625 c 0.620507,1.34 0.96875,2.8324 0.96875,4.4062 0,1.7228 -0.420928,3.3468 -1.15625,4.7813 l 1.34375,0.6875 c 0.843267,-1.6417 1.3125,-3.4963 1.3125,-5.4688 0,-1.8047 -0.41137,-3.4958 -1.125,-5.0312 z"
       id="path4839"
       inkscape:connector-curvature="0"
       sodipodi:nodetypes="ccsccscccsccsc" />
    <path
       style="fill:#ffffff;fill-opacity:1;stroke:none;filter:url(#filter4050)"
       d="m 17,1025.3622 c -0.09763,0 -0.184955,0.014 -0.28125,0.031 -0.0963,0.016 -0.194972,0.018 -0.28125,0.062 -0.172557,0.091 -0.312087,0.2565 -0.4375,0.4062 -1.695014,2.0226 -3.203475,4.2015 -4.5,6.5 l -1.90625,0.094 c -0.047973,0 -0.078344,0.024 -0.125,0.031 -0.046656,0.011 -0.11686,0.034 -0.15625,0.062 -0.07878,0.055 -0.1110476,0.134 -0.15625,0.2188 -0.5797099,1.0873 -0.6562421,2.3615 -0.65625,3.5937 -7.9e-6,1.2322 0.076515,2.5064 0.65625,3.5938 0.045202,0.085 0.07747,0.1637 0.15625,0.2187 0.03939,0.027 0.1095937,0.052 0.15625,0.062 0.046656,0.012 0.077027,0.029 0.125,0.031 l 1.90625,0.094 c 1.296525,2.2985 2.804986,4.4774 4.5,6.5 0.125413,0.1497 0.264943,0.284 0.4375,0.375 0.08628,0.045 0.18495,0.078 0.28125,0.094 0.0963,0.017 0.18362,0.031 0.28125,0.031 l 1.5,0 c 1.104569,0 2,-4.9249 2,-11 0,-6.0751 -0.895431,-11 -2,-11 l -1.5,0 z"
       id="path4178"
       inkscape:connector-curvature="0"
       sodipodi:nodetypes="cccccccccsccccccccsssscc" />
  </g>
</svg>
