<?xml version="1.0" encoding="UTF-8" standalone="no"?>
<!-- Created with Inkscape (http://www.inkscape.org/) -->

<svg
   xmlns:dc="http://purl.org/dc/elements/1.1/"
   xmlns:cc="http://creativecommons.org/ns#"
   xmlns:rdf="http://www.w3.org/1999/02/22-rdf-syntax-ns#"
   xmlns:svg="http://www.w3.org/2000/svg"
   xmlns="http://www.w3.org/2000/svg"
   xmlns:sodipodi="http://sodipodi.sourceforge.net/DTD/sodipodi-0.dtd"
   xmlns:inkscape="http://www.inkscape.org/namespaces/inkscape"
   width="32"
   height="32"
   id="svg2"
   version="1.1"
   inkscape:version="0.48.2 r9819"
   sodipodi:docname="ic_speech_off.svg">
  <defs
     id="defs4">
    <inkscape:path-effect
       effect="spiro"
       id="path-effect4821"
       is_visible="true" />
    <inkscape:path-effect
       effect="spiro"
       id="path-effect4742"
       is_visible="true" />
    <inkscape:path-effect
       effect="spiro"
       id="path-effect4738"
       is_visible="true" />
    <inkscape:path-effect
       is_visible="true"
       id="path-effect4734"
       effect="spiro" />
    <inkscape:path-effect
       effect="spiro"
       id="path-effect4725"
       is_visible="true" />
    <inkscape:path-effect
       effect="spiro"
       id="path-effect4719"
       is_visible="true" />
    <inkscape:path-effect
       effect="spiro"
       id="path-effect4192"
       is_visible="true" />
    <filter
       inkscape:collect="always"
       id="filter4902"
       x="-0.17"
       width="1.34"
       y="-0.092727273"
       height="1.1854545">
      <feGaussianBlur
         inkscape:collect="always"
         stdDeviation="1"
         id="feGaussianBlur4904" />
    </filter>
    <filter
       inkscape:collect="always"
       id="filter4962"
       x="-0.23138122"
       width="1.4627624"
       y="-0.081005803"
       height="1.1620116">
      <feGaussianBlur
         inkscape:collect="always"
         stdDeviation="1"
         id="feGaussianBlur4964" />
    </filter>
    <filter
       inkscape:collect="always"
       id="filter4991"
       x="-0.1292459"
       width="1.2584918"
       y="-0.11198864"
       height="1.2239773">
      <feGaussianBlur
         inkscape:collect="always"
         stdDeviation="1"
         id="feGaussianBlur4993" />
    </filter>
  </defs>
  <sodipodi:namedview
     id="base"
     pagecolor="#ffffff"
     bordercolor="#666666"
     borderopacity="1.0"
     inkscape:pageopacity="0.0"
     inkscape:pageshadow="2"
     inkscape:zoom="8"
     inkscape:cx="9.6919271"
     inkscape:cy="5.1542235"
     inkscape:document-units="px"
     inkscape:current-layer="layer1"
     showgrid="false"
     showguides="true"
     inkscape:guide-bbox="true"
     inkscape:window-width="1237"
     inkscape:window-height="797"
     inkscape:window-x="198"
     inkscape:window-y="27"
     inkscape:window-maximized="0"
     inkscape:snap-page="true"
     inkscape:snap-object-midpoints="true"
     inkscape:snap-center="true"
     inkscape:object-nodes="true"
     inkscape:snap-midpoints="true"
     inkscape:snap-smooth-nodes="true"
     inkscape:snap-bbox="true"
     inkscape:snap-bbox-midpoints="true"
     inkscape:bbox-paths="true"
     inkscape:bbox-nodes="true"
     inkscape:snap-bbox-edge-midpoints="true"
     inkscape:object-paths="true"
     inkscape:snap-intersection-paths="true"
     inkscape:snap-global="true">
    <sodipodi:guide
       orientation="1,0"
       position="4,4"
       id="guide3761" />
    <sodipodi:guide
       orientation="0,1"
       position="4,4"
       id="guide3763" />
    <sodipodi:guide
       orientation="1,0"
       position="28,28"
       id="guide3765" />
    <sodipodi:guide
       orientation="0,1"
       position="28,28"
       id="guide3767" />
    <inkscape:grid
       type="xygrid"
       id="grid4141"
       empspacing="5"
       visible="true"
       enabled="true"
       snapvisiblegridlinesonly="true" />
  </sodipodi:namedview>
  <metadata
     id="metadata7">
    <rdf:RDF>
      <cc:Work
         rdf:about="">
        <dc:format>image/svg+xml</dc:format>
        <dc:type
           rdf:resource="http://purl.org/dc/dcmitype/StillImage" />
        <dc:title></dc:title>
      </cc:Work>
    </rdf:RDF>
  </metadata>
  <g
     inkscape:label="Layer 1"
     inkscape:groupmode="layer"
     id="layer1"
     transform="translate(0,-1020.3622)">
    <path
       id="path4989"
       transform="translate(0,1020.3622)"
       d="M 17 5 C 16.90237 5 16.815045 5.01425 16.71875 5.03125 C 16.62245 5.04725 16.523778 5.04875 16.4375 5.09375 C 16.264943 5.18475 16.125413 5.3503 16 5.5 C 14.682908 7.0716401 13.483834 8.7546963 12.40625 10.5 L 7.875 5.96875 L 6.46875 7.375 L 24.125 25.03125 L 25.53125 23.625 L 20.46875 18.5625 C 20.500742 17.741092 20.5 16.883425 20.5 16 C 20.5 9.9248675 19.604569 5 18.5 5 L 17 5 z M 18 7 C 18.552284 7 19 11.0294 19 16 C 19 16.377249 18.979499 16.703217 18.96875 17.0625 L 17.75 15.84375 C 17.698406 14.571635 17.014965 13.543748 16.125 13.3125 C 16.446863 9.6649373 17.34999 7 18 7 z M 9.3125 12.21875 C 9.2486578 12.272503 9.1971765 12.329472 9.15625 12.40625 C 8.5765401 13.49355 8.5000079 14.7678 8.5 16 C 8.4999921 17.2322 8.576515 18.50635 9.15625 19.59375 C 9.201452 19.67875 9.2337198 19.7575 9.3125 19.8125 C 9.35189 19.8395 9.4220937 19.864 9.46875 19.875 C 9.515406 19.887 9.5457775 19.90425 9.59375 19.90625 L 11.5 20 C 12.796525 22.2985 14.304986 24.4774 16 26.5 C 16.125413 26.6497 16.264943 26.784 16.4375 26.875 C 16.523778 26.92 16.62245 26.95275 16.71875 26.96875 C 16.815045 26.98575 16.90237 27 17 27 L 18.5 27 C 19.123914 27 19.66447 25.399846 20.03125 22.9375 L 18.75 21.65625 C 18.566584 23.65594 18.310611 25 18 25 C 17.373107 25 16.505523 22.510855 16.15625 19.0625 L 9.3125 12.21875 z "
       style="fill:#000000;fill-opacity:1;stroke:#000000;stroke-opacity:1;stroke-linejoin:round;opacity:0.50000000000000000;filter:url(#filter4991)" />
    <path
       style="fill:#ffffff;fill-opacity:1;stroke:none"
       d="M 17 5 C 16.90237 5 16.815045 5.01425 16.71875 5.03125 C 16.62245 5.04725 16.523778 5.04875 16.4375 5.09375 C 16.264943 5.18475 16.125413 5.3503 16 5.5 C 14.682908 7.0716401 13.483834 8.7546963 12.40625 10.5 L 7.875 5.96875 L 6.46875 7.375 L 24.125 25.03125 L 25.53125 23.625 L 20.46875 18.5625 C 20.500742 17.741092 20.5 16.883425 20.5 16 C 20.5 9.9248675 19.604569 5 18.5 5 L 17 5 z M 18 7 C 18.552284 7 19 11.0294 19 16 C 19 16.377249 18.979499 16.703217 18.96875 17.0625 L 17.75 15.84375 C 17.698406 14.571635 17.014965 13.543748 16.125 13.3125 C 16.446863 9.6649373 17.34999 7 18 7 z M 9.3125 12.21875 C 9.2486578 12.272503 9.1971765 12.329472 9.15625 12.40625 C 8.5765401 13.49355 8.5000079 14.7678 8.5 16 C 8.4999921 17.2322 8.576515 18.50635 9.15625 19.59375 C 9.201452 19.67875 9.2337198 19.7575 9.3125 19.8125 C 9.35189 19.8395 9.4220937 19.864 9.46875 19.875 C 9.515406 19.887 9.5457775 19.90425 9.59375 19.90625 L 11.5 20 C 12.796525 22.2985 14.304986 24.4774 16 26.5 C 16.125413 26.6497 16.264943 26.784 16.4375 26.875 C 16.523778 26.92 16.62245 26.95275 16.71875 26.96875 C 16.815045 26.98575 16.90237 27 17 27 L 18.5 27 C 19.123914 27 19.66447 25.399846 20.03125 22.9375 L 18.75 21.65625 C 18.566584 23.65594 18.310611 25 18 25 C 17.373107 25 16.505523 22.510855 16.15625 19.0625 L 9.3125 12.21875 z "
       transform="translate(0,1020.3622)"
       id="path4178" />
  </g>
</svg>
