<?xml version="1.0" encoding="UTF-8" standalone="no"?>
<!-- Created with Inkscape (http://www.inkscape.org/) -->

<svg
   xmlns:dc="http://purl.org/dc/elements/1.1/"
   xmlns:cc="http://creativecommons.org/ns#"
   xmlns:rdf="http://www.w3.org/1999/02/22-rdf-syntax-ns#"
   xmlns:svg="http://www.w3.org/2000/svg"
   xmlns="http://www.w3.org/2000/svg"
   xmlns:sodipodi="http://sodipodi.sourceforge.net/DTD/sodipodi-0.dtd"
   xmlns:inkscape="http://www.inkscape.org/namespaces/inkscape"
   width="32"
   height="32"
   id="svg2"
   version="1.1"
   inkscape:version="0.48.2 r9819"
   sodipodi:docname="ic_speech_on.svg">
  <defs
     id="defs4">
    <inkscape:path-effect
       effect="spiro"
       id="path-effect4821"
       is_visible="true" />
    <inkscape:path-effect
       effect="spiro"
       id="path-effect4742"
       is_visible="true" />
    <inkscape:path-effect
       effect="spiro"
       id="path-effect4738"
       is_visible="true" />
    <inkscape:path-effect
       is_visible="true"
       id="path-effect4734"
       effect="spiro" />
    <inkscape:path-effect
       effect="spiro"
       id="path-effect4725"
       is_visible="true" />
    <inkscape:path-effect
       effect="spiro"
       id="path-effect4719"
       is_visible="true" />
    <inkscape:path-effect
       effect="spiro"
       id="path-effect4192"
       is_visible="true" />
    <filter
       inkscape:collect="always"
       id="filter4889"
       x="-0.1292459"
       width="1.2584918"
       y="-0.11198864"
       height="1.2239773">
      <feGaussianBlur
         inkscape:collect="always"
         stdDeviation="1.0265625"
         id="feGaussianBlur4891" />
    </filter>
    <filter
       inkscape:collect="always"
       id="filter4902"
       x="-0.17"
       width="1.34"
       y="-0.092727273"
       height="1.1854545">
      <feGaussianBlur
         inkscape:collect="always"
         stdDeviation="1"
         id="feGaussianBlur4904" />
    </filter>
    <filter
       inkscape:collect="always"
       id="filter4962"
       x="-0.23138122"
       width="1.4627624"
       y="-0.081005803"
       height="1.1620116">
      <feGaussianBlur
         inkscape:collect="always"
         stdDeviation="1"
         id="feGaussianBlur4964" />
    </filter>
  </defs>
  <sodipodi:namedview
     id="base"
     pagecolor="#ffffff"
     bordercolor="#666666"
     borderopacity="1.0"
     inkscape:pageopacity="0.0"
     inkscape:pageshadow="2"
     inkscape:zoom="8"
     inkscape:cx="24.334677"
     inkscape:cy="31.415754"
     inkscape:document-units="px"
     inkscape:current-layer="layer1"
     showgrid="false"
     showguides="true"
     inkscape:guide-bbox="true"
     inkscape:window-width="1237"
     inkscape:window-height="797"
     inkscape:window-x="198"
     inkscape:window-y="27"
     inkscape:window-maximized="0"
     inkscape:snap-page="true"
     inkscape:snap-object-midpoints="true"
     inkscape:snap-center="true"
     inkscape:object-nodes="true"
     inkscape:snap-midpoints="true"
     inkscape:snap-smooth-nodes="true"
     inkscape:snap-bbox="true"
     inkscape:snap-bbox-midpoints="true"
     inkscape:bbox-paths="true"
     inkscape:bbox-nodes="true"
     inkscape:snap-bbox-edge-midpoints="true"
     inkscape:object-paths="true"
     inkscape:snap-intersection-paths="true"
     inkscape:snap-global="true">
    <sodipodi:guide
       orientation="1,0"
       position="4,4"
       id="guide3761" />
    <sodipodi:guide
       orientation="0,1"
       position="4,4"
       id="guide3763" />
    <sodipodi:guide
       orientation="1,0"
       position="28,28"
       id="guide3765" />
    <sodipodi:guide
       orientation="0,1"
       position="28,28"
       id="guide3767" />
    <inkscape:grid
       type="xygrid"
       id="grid4141"
       empspacing="5"
       visible="true"
       enabled="true"
       snapvisiblegridlinesonly="true" />
  </sodipodi:namedview>
  <metadata
     id="metadata7">
    <rdf:RDF>
      <cc:Work
         rdf:about="">
        <dc:format>image/svg+xml</dc:format>
        <dc:type
           rdf:resource="http://purl.org/dc/dcmitype/StillImage" />
        <dc:title></dc:title>
      </cc:Work>
    </rdf:RDF>
  </metadata>
  <g
     inkscape:label="Layer 1"
     inkscape:groupmode="layer"
     id="layer1"
     transform="translate(0,-1020.3622)">
    <path
       id="path4960"
       transform="translate(0,1020.3622)"
       d="M 25.75 8.15625 L 24.5 8.9375 C 25.762328 10.9914 26.5 13.4124 26.5 16 C 26.5 18.7713 25.65098 21.3566 24.21875 23.5 L 25.46875 24.3125 C 27.062163 21.93 28 19.0814 28 16 C 28 13.1164 27.160327 10.44265 25.75 8.15625 z M 23.875 10.96875 L 22.53125 11.59375 C 23.151757 12.93375 23.5 14.4262 23.5 16 C 23.5 17.7228 23.079072 19.34675 22.34375 20.78125 L 23.6875 21.46875 C 24.530767 19.82705 25 17.9725 25 16 C 25 14.1953 24.58863 12.50415 23.875 10.96875 z "
       style="fill:#000000;fill-opacity:1;stroke:#000000;stroke-opacity:1;opacity:0.50000000000000000;stroke-linejoin:round;filter:url(#filter4962)" />
    <path
       style="fill:#ffffff;fill-opacity:1;stroke:none"
       d="M 25.75 8.15625 L 24.5 8.9375 C 25.762328 10.9914 26.5 13.4124 26.5 16 C 26.5 18.7713 25.65098 21.3566 24.21875 23.5 L 25.46875 24.3125 C 27.062163 21.93 28 19.0814 28 16 C 28 13.1164 27.160327 10.44265 25.75 8.15625 z M 23.875 10.96875 L 22.53125 11.59375 C 23.151757 12.93375 23.5 14.4262 23.5 16 C 23.5 17.7228 23.079072 19.34675 22.34375 20.78125 L 23.6875 21.46875 C 24.530767 19.82705 25 17.9725 25 16 C 25 14.1953 24.58863 12.50415 23.875 10.96875 z "
       transform="translate(0,1020.3622)"
       id="path4839" />
    <path
       id="path4900"
       transform="translate(0,1020.3622)"
       d="M 17 5 C 16.90237 5 16.815045 5.01425 16.71875 5.03125 C 16.62245 5.04725 16.523778 5.04875 16.4375 5.09375 C 16.264943 5.18475 16.125413 5.3503 16 5.5 C 14.304986 7.5226 12.796525 9.7015 11.5 12 L 9.59375 12.09375 C 9.545777 12.09375 9.5154061 12.118 9.46875 12.125 C 9.422094 12.136 9.35189 12.1595 9.3125 12.1875 C 9.23372 12.2425 9.2014524 12.32145 9.15625 12.40625 C 8.5765401 13.49355 8.5000079 14.7678 8.5 16 C 8.4999921 17.2322 8.576515 18.50635 9.15625 19.59375 C 9.201452 19.67875 9.2337198 19.7575 9.3125 19.8125 C 9.35189 19.8395 9.4220937 19.864 9.46875 19.875 C 9.515406 19.887 9.5457775 19.90425 9.59375 19.90625 L 11.5 20 C 12.796525 22.2985 14.304986 24.4774 16 26.5 C 16.125413 26.6497 16.264943 26.784 16.4375 26.875 C 16.523778 26.92 16.62245 26.95275 16.71875 26.96875 C 16.815045 26.98575 16.90237 27 17 27 L 18.5 27 C 19.604569 27 20.5 22.075132 20.5 16 C 20.5 9.9248675 19.604569 5 18.5 5 L 17 5 z M 18 7 C 18.552284 7 19 11.0294 19 16 C 19 20.9705 18.552284 25 18 25 C 17.34999 25 16.446863 22.335034 16.125 18.6875 C 17.050996 18.44689 17.75 17.343201 17.75 16 C 17.75 14.656799 17.050996 13.55311 16.125 13.3125 C 16.446863 9.6649373 17.34999 7 18 7 z "
       style="fill:#000000;fill-opacity:1;stroke:#000000;stroke-opacity:1;opacity:0.50000000000000000;stroke-linejoin:round;filter:url(#filter4902)" />
    <path
       style="fill:#ffffff;fill-opacity:1;stroke:none"
       d="M 17 5 C 16.90237 5 16.815045 5.01425 16.71875 5.03125 C 16.62245 5.04725 16.523778 5.04875 16.4375 5.09375 C 16.264943 5.18475 16.125413 5.3503 16 5.5 C 14.304986 7.5226 12.796525 9.7015 11.5 12 L 9.59375 12.09375 C 9.545777 12.09375 9.5154061 12.118 9.46875 12.125 C 9.422094 12.136 9.35189 12.1595 9.3125 12.1875 C 9.23372 12.2425 9.2014524 12.32145 9.15625 12.40625 C 8.5765401 13.49355 8.5000079 14.7678 8.5 16 C 8.4999921 17.2322 8.576515 18.50635 9.15625 19.59375 C 9.201452 19.67875 9.2337198 19.7575 9.3125 19.8125 C 9.35189 19.8395 9.4220937 19.864 9.46875 19.875 C 9.515406 19.887 9.5457775 19.90425 9.59375 19.90625 L 11.5 20 C 12.796525 22.2985 14.304986 24.4774 16 26.5 C 16.125413 26.6497 16.264943 26.784 16.4375 26.875 C 16.523778 26.92 16.62245 26.95275 16.71875 26.96875 C 16.815045 26.98575 16.90237 27 17 27 L 18.5 27 C 19.604569 27 20.5 22.075132 20.5 16 C 20.5 9.9248675 19.604569 5 18.5 5 L 17 5 z M 18 7 C 18.552284 7 19 11.0294 19 16 C 19 20.9705 18.552284 25 18 25 C 17.34999 25 16.446863 22.335034 16.125 18.6875 C 17.050996 18.44689 17.75 17.343201 17.75 16 C 17.75 14.656799 17.050996 13.55311 16.125 13.3125 C 16.446863 9.6649373 17.34999 7 18 7 z "
       transform="translate(0,1020.3622)"
       id="path4178" />
  </g>
</svg>
